<?xml version="1.0" encoding="utf-8"?>
<!-- Generator: Adobe Illustrator 24.0.2, SVG Export Plug-In . SVG Version: 6.00 Build 0)  -->
<svg version="1.1" id="Слой_1" xmlns="http://www.w3.org/2000/svg" xmlns:xlink="http://www.w3.org/1999/xlink" x="0px" y="0px"
	 viewBox="0 0 34 66" style="enable-background:new 0 0 34 66;" xml:space="preserve">
<style type="text/css">
	.st0{fill:#FFFFFF;}
	.st1{fill:#E30613;}
</style>
<g>
	<path class="st0" d="M15.52,61.25l-0.86-14.63h-4.19L9.7,61.25H5.08l3.76-56.8h7.53l3.85,56.8H15.52z M10.73,42.52h3.68
		l-1.63-29.86h-0.34L10.73,42.52z"/>
	<g>
		<path class="st1" d="M26.98,2.97l3.79,60.06H3.22L7.02,2.97H26.98 M29.77,0h-2.79H7.02H4.23L4.05,2.78L0.26,62.84L0.06,66h3.16
			h27.55h3.16l-0.2-3.16L29.95,2.78L29.77,0L29.77,0z"/>
	</g>
	<g>
		<polygon class="st0" points="25.23,4.54 20.28,4.54 23.09,51.15 28.04,51.15 		"/>
		<polygon class="st0" points="23.52,54.61 23.94,61.21 28.89,61.21 28.47,54.61 		"/>
	</g>
</g>
</svg>
